# File created by Blade
# Date/Time:  Fri Jan 16 19:14:28 2015
# Frame Rate: 120.000 fps
#------------------------------------------------------
:FULLY-SPECIFIED
:DEGREES
853
root 18.978479 35.760435 -22.362456 -166.953852 -0.278559 -178.246985
Spine -27.371972 -0.516384 0.806920
Head 16.832752 1.613807 4.937106
LeftShoulder -26.622527 -66.361955 72.580331
LeftArm 53.493871 -23.332659 2.731556
LeftForeArm -0.601308 -0.000000 8.182145
LeftHand -1.599961 -0.000000 -20.913699
LeftHandThumb1 -26.253704 0.000000 33.147579
RightShoulder -11.420095 20.295294 -44.579421
RightArm 40.053575 52.154239 -16.395835
RightForeArm -59.905435 -0.000000 18.002493
RightHand -7.235391 -0.000000 2.241844
RightHandThumb1 -24.326973 -0.000000 -32.862282
LeftUpLeg -3.041500 7.857774 0.455642
LeftLeg -7.400766 -0.000000 0.000000
LeftFoot -20.518249 28.530296 -16.574758
LeftToeBase 23.406120 -0.000000 -0.000000
RightUpLeg -5.047930 -8.859586 1.538263
RightLeg -3.814580 -0.000000 0.000000
RightFoot -19.530963 -22.152892 20.604309
RightToeBase 22.660391 -0.000000 -0.000000
854
root 18.977778 35.761786 -22.356469 -166.983899 -0.276996 -178.250843
Spine -27.308749 -0.515641 0.803229
Head 16.841895 1.618784 4.960668
LeftShoulder -26.772332 -66.476469 72.874748
LeftArm 53.468145 -23.226463 2.634928
LeftForeArm -0.535012 -0.000000 7.980195
LeftHand -1.585075 -0.000000 -20.957925
LeftHandThumb1 -26.253704 0.000000 33.147579
RightShoulder -11.424722 20.427672 -44.704707
RightArm 40.157530 51.971836 -16.334954
RightForeArm -59.810068 -0.000000 17.620413
RightHand -7.056610 0.000000 2.026613
RightHandThumb1 -24.326973 -0.000000 -32.862282
LeftUpLeg -3.028679 7.875777 0.451963
LeftLeg -7.386524 -0.000000 0.000000
LeftFoot -20.509001 28.502047 -16.587273
LeftToeBase 23.400019 -0.000000 -0.000000
RightUpLeg -5.027537 -8.864143 1.531436
RightLeg -3.817324 -0.000000 0.000000
RightFoot -19.517503 -22.166220 20.585042
RightToeBase 22.698231 -0.000000 -0.000000
855
root 18.978210 35.763470 -22.350781 -167.010948 -0.277051 -178.243679
Spine -27.251417 -0.491212 0.798731
Head 16.853883 1.587212 4.972949
LeftShoulder -26.892978 -66.595355 73.138106
LeftArm 53.447253 -23.154194 2.502437
LeftForeArm -0.537269 -0.000000 7.776996
LeftHand -1.510191 -0.000000 -20.969191
LeftHandThumb1 -26.253704 0.000000 33.147579
RightShoulder -11.389397 20.425009 -44.776067
RightArm 40.045535 51.819903 -16.568170
RightForeArm -59.694292 -0.000000 17.204395
RightHand -6.994166 -0.000000 2.032937
RightHandThumb1 -24.326973 -0.000000 -32.862282
LeftUpLeg -3.009491 7.871583 0.462099
LeftLeg -7.389680 -0.000000 0.000000
LeftFoot -20.496622 28.513253 -16.586896
LeftToeBase 23.401670 -0.000000 -0.000000
RightUpLeg -5.010841 -8.859795 1.536200
RightLeg -3.814085 -0.000000 0.000000
RightFoot -19.507197 -22.149505 20.625345
RightToeBase 22.640539 -0.000000 -0.000000
856
root 18.977499 35.764617 -22.345040 -167.034276 -0.292282 -178.249179
Spine -27.197243 -0.468096 0.782127
Head 16.872062 1.562518 4.981358
LeftShoulder -26.880904 -66.694822 73.267087
LeftArm 53.375656 -23.136599 2.438415
LeftForeArm -0.567561 -0.000000 7.592325
LeftHand -1.410042 -0.000000 -21.016885
LeftHandThumb1 -26.253704 0.000000 33.147579
RightShoulder -11.366379 20.420182 -44.856819
RightArm 39.924844 51.640488 -16.841660
RightForeArm -59.413177 -0.000000 16.660763
RightHand -6.764866 -0.000000 1.820980
RightHandThumb1 -24.326973 -0.000000 -32.862282
LeftUpLeg -2.998918 7.843922 0.463086
LeftLeg -7.386223 -0.000000 0.000000
LeftFoot -20.479874 28.519243 -16.589908
LeftToeBase 23.376136 -0.000000 -0.000000
RightUpLeg -4.994162 -8.883685 1.531855
RightLeg -3.817464 -0.000000 0.000000
RightFoot -19.498971 -22.148335 20.637571
RightToeBase 22.622075 -0.000000 -0.000000
